<svg xmlns="http://www.w3.org/2000/svg" data-name="Layer 1" viewBox="0 0 24 24" fill="currentColor">
    <path
        d="M11.997 1c-7.05.044-10.971 4.202-10.971 10.991 0 6.966 3.823 10.967 10.977 11.009 7.147-.042 10.839-3.74 10.971-11.009C22.852 4.949 18.956 1.045 11.997 1Zm.006 21c-6.588-.039-9.852-3.31-9.977-10 .12-6.595 3.477-9.959 9.97-10 4.473.029 9.835 1.79 9.977 9.991-.122 6.696-3.385 9.97-9.971 10.009Z" />
    <path d="M12.594 10.785h-1.188a.5.5 0 0 0 0 1h.688v4.153a.5.5 0 0 0 1 0v-4.653a.5.5 0 0 0-.5-.5Z" />
    <circle cx="12" cy="8.315" r=".75" />
</svg>