<svg xmlns="http://www.w3.org/2000/svg" data-name="Layer 1" viewBox="0 0 24 24" fill="currentColor">
    <path
        d="M12 0C5.383 0 0 5.383 0 12s5.383 12 12 12h7.5c3.56 0 4.5-2.943 4.5-4.5V12c0-6.617-5.383-12-12-12Zm11 19.499c0 .143-.059 3.501-3.5 3.501H12C5.935 23 1 18.065 1 12S5.935 1 12 1s11 4.935 11 11v7.499Zm-6.01-9.479h-3l-1.06-2.848c-.252-.787-1.627-.786-1.882 0l-1.059 2.847h-3c-.921-.025-1.355 1.196-.632 1.768l2.362 1.923-.942 3.017c-.287.861.775 1.655 1.518 1.141L12 16.06l2.753 1.792c.749.514 1.814-.292 1.496-1.163l-.979-2.979 2.378-1.937c.692-.557.243-1.787-.658-1.754Zm-2.618 3.132a.501.501 0 0 0-.16.544l1.083 3.316-3.026-1.97a.507.507 0 0 0-.551.003l-2.957 1.974h-.028l1.042-3.333a.5.5 0 0 0-.161-.537l-2.632-2.127s.003-.002.008-.002h3.348a.5.5 0 0 0 .469-.326l1.186-3.174 1.181 3.175c.073.195.26.325.469.325l3.366-.015-2.637 2.146Z" />
</svg>