<svg xmlns="http://www.w3.org/2000/svg" data-name="Layer 1" viewBox="0 0 24 24" fill="currentColor">
    <path
        d="M18.147 7.191a1.463 1.463 0 0 1-1-.766c-1.615-3.224-5.103-4.943-8.675-4.279-3.135.582-5.669 3.081-6.306 6.218a8.097 8.097 0 0 0-.083 2.796c.083.567-.058 1.073-.387 1.387A5.433 5.433 0 0 0 0 16.5C0 19.636 2.364 22 5.5 22h10.736c4.13 0 7.611-3.234 7.758-7.211a7.5 7.5 0 0 0-5.847-7.598ZM16.236 21H5.5C2.893 21 1 19.107 1 16.501a4.443 4.443 0 0 1 1.388-3.231c.566-.54.815-1.361.685-2.254a7.103 7.103 0 0 1 .074-2.452c.556-2.742 2.77-4.926 5.508-5.435a7.329 7.329 0 0 1 1.335-.123 6.963 6.963 0 0 1 6.263 3.867c.33.659.941 1.131 1.676 1.295a6.5 6.5 0 0 1 5.066 6.584C22.867 18.197 19.835 21 16.236 21Zm-.969-6.854a.5.5 0 0 1 0 .707L12.56 17.56a1.477 1.477 0 0 1-.925.412c-.044.013-.087.027-.135.027s-.091-.015-.135-.027a1.475 1.475 0 0 1-.925-.412l-2.707-2.707a.5.5 0 0 1 .707-.707l2.561 2.561V9.5a.5.5 0 0 1 1 0v7.207l2.561-2.561a.5.5 0 0 1 .707 0Z" />
</svg>