<svg xmlns="http://www.w3.org/2000/svg" data-name="Layer 1" viewBox="0 0 24 24" fill="currentColor">
    <path
        d="M9 12a1 1 0 1 1-2 0 1 1 0 0 1 2 0Zm7 5.5v4c0 1.379-1.121 2.5-2.5 2.5h-11A2.503 2.503 0 0 1 0 21.5V5.321A4.513 4.513 0 0 1 3.617.908L7.813.069A3.5 3.5 0 0 1 11.663 2h.837C14.43 2 16 3.57 16 5.5v6a.5.5 0 0 1-1 0v-6C15 4.121 13.879 3 12.5 3h-.555c.024.166.055.33.055.501V23h1.5c.827 0 1.5-.673 1.5-1.5v-4a.5.5 0 0 1 1 0ZM11 3.501a2.49 2.49 0 0 0-.915-1.933 2.489 2.489 0 0 0-2.076-.518l-4.196.839A3.51 3.51 0 0 0 1 5.322v16.179c0 .827.673 1.5 1.5 1.5H11v-19.5ZM24 14.5c0-.5-.277-1.154-.677-1.528l-2.496-2.337a.5.5 0 0 0-.684.73l2.496 2.337c.093.087.158.191.214.298h-8.354a.5.5 0 0 0 0 1h8.325c-.052.088-.101.179-.179.253l-2.506 2.385a.5.5 0 0 0 .689.724l2.506-2.385c.372-.354.664-.978.664-1.478Z" />
</svg>