<svg xmlns="http://www.w3.org/2000/svg" data-name="Layer 1" viewBox="0 0 24 24" fill="currentColor">
    <path
        d="M13.5 5C14.878 5 16 3.879 16 2.5S14.878 0 13.5 0 11 1.121 11 2.5 12.122 5 13.5 5Zm0-4c.827 0 1.5.673 1.5 1.5S14.327 4 13.5 4 12 3.327 12 2.5 12.673 1 13.5 1Zm-10 9C4.878 10 6 8.879 6 7.5S4.878 5 3.5 5 1 6.121 1 7.5 2.122 10 3.5 10Zm0-4C4.327 6 5 6.673 5 7.5S4.327 9 3.5 9 2 8.327 2 7.5 2.673 6 3.5 6Zm19.729 7.08L18 16.454V14.5c0-.827-.673-1.5-1.5-1.5H16V7h3.5a.5.5 0 0 0 .5-.5V5.209l3.435-1.72c.354-.243.565-.656.565-1.104s-.211-.86-.565-1.104A355.39 355.39 0 0 0 21.107.23a3.944 3.944 0 0 0-.478-.178 1.233 1.233 0 0 0-1.105.196 1.296 1.296 0 0 0-.523 1.037v4.713h-5.5c-.741 0-1.408.325-1.866.839l-2.979 2.89a1.5 1.5 0 0 1-.755.396l-5.317 1.05a2.488 2.488 0 0 0-1.582 2.326v7.882l-.947 1.895a.5.5 0 0 0 .895.448l1-2a.496.496 0 0 0 .053-.224V19h4.5a.5.5 0 0 1 .5.5v4a.5.5 0 0 0 .5.5h.5c.096 0 .19-.027.271-.08l15.5-10a.5.5 0 1 0-.542-.839ZM20 1.287a.29.29 0 0 1 .119-.234.262.262 0 0 1 .151-.052c.022 0 .309.09.426.143l2.198.983c.066.06.105.154.105.259a.418.418 0 0 1-.072.244l-2.928 1.462V1.287ZM17 14.5V17c0 .032.003.063.009.093L12 20.325V14h4.5a.5.5 0 0 1 .5.5ZM15 7v6h-3V8.5A1.5 1.5 0 0 1 13.5 7H15ZM2 13.5c0-.62.373-1.168.862-1.371L5 11.71V18H2v-4.5Zm6 9.405V19.5c0-.827-.673-1.5-1.5-1.5H6v-6.485l2.091-.409a2.502 2.502 0 0 0 1.26-.659L11 8.848v12.123l-3 1.935Z" />
</svg>