<svg xmlns="http://www.w3.org/2000/svg" data-name="Layer 1" viewBox="0 0 24 24" fill="currentColor">
    <path
        d="M12.003 11.774c3.5-.021 5.307-1.83 5.372-5.396-.06-3.446-1.967-5.356-5.378-5.378-3.452.021-5.372 2.066-5.372 5.378 0 3.462 1.921 5.375 5.378 5.396ZM11.997 2c2.855.019 4.328 1.498 4.378 4.378-.055 2.982-1.446 4.379-4.372 4.396-2.93-.017-4.321-1.411-4.378-4.387C7.68 3.453 9.112 2.018 11.997 2Zm0 12.294c-5.259.033-8.089 2.867-8.185 8.197a.5.5 0 0 0 .491.509h.009a.5.5 0 0 0 .5-.491c.086-4.825 2.438-7.186 7.184-7.215 4.689.03 7.109 2.458 7.191 7.215.005.276.255.505.509.491a.5.5 0 0 0 .491-.509c-.091-5.252-2.997-8.164-8.19-8.197Z" />
</svg>