<svg viewBox="0 0 52 49" fill="none" xmlns="http://www.w3.org/2000/svg"><path data-follow-stroke="#000" data-follow-fill="#000" d="M12.608 35.25c7.462 8.782 16.195 10.618 26.698 4.69l7.062 7.834 4.71-4.7-7.061-7.045c3.741-4.99 5.784-13.356 3.483-21.529C45.2 6.327 38.856 1.323 31.454.784c12.563 9.39 12.563 22.49 6.281 29.767L18.07 10.174l7.852-6.626L14.18.774 1.616 13.297l7.061 7.046 5.492-5.479 18.905 19.588a11.405 11.405 0 0 1-4.711 2.306c-7.002 1.536-15.394-6.227-15.704-6.227-.31 0-10.203 9.4-10.203 9.4-1.65 1.307-1.67 2.375-.83 3.303l3.14 2.195c1.23.3 2.291-.14 3.141-1.567l4.701-8.611Z" fill="#000" stroke="#000"/></svg>