<svg xmlns="http://www.w3.org/2000/svg" data-name="Layer 1" viewBox="0 0 24 24" fill="currentColor">
    <path
        d="M22.994 5.195c-.011-.067-.277-1.662-1.378-2.774-1.111-1.09-2.712-1.355-2.779-1.366a.49.49 0 0 0-.342.068c-.122.075-3.047 1.913-9.049 7.886-6.326 6.296-7.964 8.782-8.031 8.885a.499.499 0 0 0-.079.233l-.334 4.285a.5.5 0 0 0 .499.539l.039-.001 4.306-.333a.493.493 0 0 0 .232-.078c.103-.066 2.6-1.697 8.924-7.991 6.002-5.974 7.848-8.886 7.923-9.007a.502.502 0 0 0 .07-.344Zm-8.699 8.643c-5.54 5.514-8.14 7.427-8.661 7.792l-3.59.278.278-3.569c.368-.521 2.292-3.109 7.828-8.619a107.44 107.44 0 0 1 4.518-4.264c.484.112 1.721.468 2.595 1.326.868.851 1.23 2.046 1.346 2.526a107.446 107.446 0 0 1-4.314 4.531Zm5.095-5.419c-.236-.681-.669-1.608-1.427-2.352-.757-.742-1.703-1.166-2.396-1.397 1.807-1.549 2.902-2.326 3.292-2.59.396.092 1.362.375 2.05 1.049.675.682.963 1.645 1.058 2.042-.265.388-1.039 1.469-2.577 3.247Z" />
</svg>