<svg xmlns="http://www.w3.org/2000/svg" data-name="Layer 1" viewBox="0 0 24 24" fill="currentColor">
    <path
        d="M22.987 5.452c-.028-.177-.312-1.767-1.464-2.928-1.157-1.132-2.753-1.412-2.931-1.44a.989.989 0 0 0-.682.137c-.071.044-1.114.697-3.173 2.438 1.059.374 2.428 1.023 3.538 2.109 1.114 1.09 1.78 2.431 2.162 3.471 1.72-2.01 2.367-3.028 2.41-3.098.128-.205.178-.45.14-.689ZM12.95 5.223a108.333 108.333 0 0 0-3.752 3.564c-6.063 6.02-7.653 8.427-7.718 8.526-.091.14-.146.301-.159.467l-.319 4.071A1.001 1.001 0 0 0 2 22.929c.025 0 .051 0 .077-.003l4.101-.316c.165-.013.324-.066.463-.155.1-.064 2.523-1.643 8.585-7.662a108.255 108.255 0 0 0 3.655-3.797c-.151-.649-.678-2.501-2.005-3.798-1.346-1.317-3.283-1.833-3.927-1.975Z" />
</svg>