<svg viewBox="0 0 20 20" fill="none" xmlns="http://www.w3.org/2000/svg">
    <path data-follow-stroke="currentColor"
        d="M19 14h-3a2 2 0 0 0-2 2v3m5 0v.01M10 5v3a2 2 0 0 1-2 2H5m-4 0h.01M10 1h.01M10 14v.01M14 10h1m4 0v.01M10 19v-1M2 1h3a1 1 0 0 1 1 1v3a1 1 0 0 1-1 1H2a1 1 0 0 1-1-1V2a1 1 0 0 1 1-1Zm13 0h3a1 1 0 0 1 1 1v3a1 1 0 0 1-1 1h-3a1 1 0 0 1-1-1V2a1 1 0 0 1 1-1ZM2 14h3a1 1 0 0 1 1 1v3a1 1 0 0 1-1 1H2a1 1 0 0 1-1-1v-3a1 1 0 0 1 1-1Z"
        stroke="currentColor" stroke-width="2" stroke-linecap="round" stroke-linejoin="round" />
</svg>