<svg xmlns="http://www.w3.org/2000/svg" data-name="Layer 1" viewBox="0 0 24 24" fill="currentColor">
    <path
        d="m13.49 7.61-2 9c-.05.23-.26.39-.49.39-.04 0-.07 0-.11-.01a.503.503 0 0 1-.38-.6l2-9a.503.503 0 0 1 .98.22ZM8.92 9.92c.2-.2.2-.51 0-.71s-.51-.2-.71 0l-1.78 1.78c-.58.58-.58 1.52 0 2.1l1.73 1.73a.485.485 0 0 0 .7 0c.2-.2.2-.51 0-.71l-1.73-1.73a.489.489 0 0 1 0-.69l1.78-1.78Zm6.87-.71c-.2-.2-.51-.2-.71 0s-.2.51 0 .71l1.78 1.78c.19.19.19.5 0 .69l-1.73 1.73c-.2.2-.2.51 0 .71a.485.485 0 0 0 .7 0l1.73-1.73c.58-.58.58-1.52 0-2.1l-1.78-1.78Zm6.45 9.06a3.01 3.01 0 0 1-1.86 1.35c-.78.19-1.58.06-2.27-.36l-.44-.27c-.8.65-1.7 1.15-2.67 1.5V21c0 1.65-1.35 3-3 3s-3-1.35-3-3v-.51c-.97-.34-1.87-.84-2.67-1.5l-.44.27c-.68.42-1.49.55-2.27.36a3.01 3.01 0 0 1-1.86-1.35c-.86-1.41-.42-3.26.99-4.13l.44-.27c-.13-.61-.2-1.24-.2-1.88s.07-1.26.2-1.88l-.44-.27C1.34 8.98.9 7.13 1.76 5.71a3.01 3.01 0 0 1 1.86-1.35c.78-.19 1.58-.06 2.27.36l.44.27c.8-.65 1.7-1.15 2.67-1.5v-.51c0-1.65 1.35-3 3-3s3 1.35 3 3v.51c.97.34 1.87.84 2.67 1.5l.44-.27c.68-.42 1.49-.54 2.27-.36.78.19 1.44.67 1.86 1.35.86 1.41.42 3.26-.99 4.13l-.44.27c.13.61.2 1.24.2 1.88s-.07 1.26-.2 1.88l.44.27c1.41.86 1.85 2.71.99 4.13ZM20.73 15l-.75-.46a.485.485 0 0 1-.22-.55c.17-.65.25-1.32.25-1.99s-.08-1.34-.25-1.99c-.05-.21.04-.44.22-.55l.75-.46a2 2 0 1 0-2.09-3.41l-.75.46c-.19.11-.43.09-.59-.05a8.002 8.002 0 0 0-2.94-1.65.495.495 0 0 1-.35-.48V3c0-1.1-.9-2-2-2s-2 .9-2 2v.87c0 .22-.14.41-.35.48-1.09.33-2.08.89-2.94 1.65-.16.15-.4.17-.59.05l-.75-.46A2 2 0 1 0 3.29 9l.75.46c.19.11.28.34.22.55-.17.65-.25 1.32-.25 1.99s.08 1.34.25 1.99c.05.21-.04.44-.22.55l-.75.46a2 2 0 1 0 2.09 3.41l.75-.46c.08-.05.17-.07.26-.07.12 0 .24.04.33.12.86.76 1.85 1.31 2.94 1.65.21.06.35.26.35.48V21c0 1.1.9 2 2 2s2-.9 2-2v-.87c0-.22.14-.41.35-.48 1.09-.33 2.08-.89 2.94-1.65.17-.15.41-.17.59-.05l.75.46A2 2 0 1 0 20.73 15Z" />
</svg>