<svg xmlns="http://www.w3.org/2000/svg" data-name="Layer 1" viewBox="0 0 24 24" fill="currentColor">
    <path
        d="M3.5 14c-1.135 0-2.152.674-2.532 1.677a.502.502 0 0 1-.645.291.502.502 0 0 1-.291-.645C.559 13.933 1.952 13 3.5 13s2.941.934 3.468 2.323a.5.5 0 1 1-.936.354C5.652 14.674 4.635 14 3.5 14ZM10 2c0-1.103.897-2 2-2s2 .897 2 2-.897 2-2 2-2-.897-2-2Zm1 0a1.001 1.001 0 1 0 1-1c-.551 0-1 .448-1 1Zm5.5 1h2C19.878 3 21 4.121 21 5.5a.5.5 0 0 0 1 0C22 3.57 20.43 2 18.5 2h-2a.5.5 0 0 0 0 1Zm6 7c0 1.103-.897 2-2 2s-2-.897-2-2 .897-2 2-2 2 .897 2 2Zm-1 0a1.001 1.001 0 0 0-2 0 1.001 1.001 0 0 0 2 0ZM12 20c-1.103 0-2-.897-2-2s.897-2 2-2 2 .897 2 2-.897 2-2 2Zm0-1a1.001 1.001 0 1 0-1-1c0 .552.449 1 1 1Zm0-14c-1.547 0-2.941.934-3.468 2.323a.5.5 0 1 0 .936.354C9.848 6.674 10.865 6 12 6s2.152.674 2.532 1.677a.5.5 0 0 0 .936-.354C14.941 5.933 13.548 5 12 5Zm-8.5 7c-1.103 0-2-.897-2-2s.897-2 2-2 2 .897 2 2-.897 2-2 2Zm0-1a1.001 1.001 0 1 0-1-1c0 .552.449 1 1 1Zm20.468 4.323C23.441 13.933 22.048 13 20.5 13s-2.941.934-3.468 2.323a.5.5 0 1 0 .936.354C18.348 14.674 19.365 14 20.5 14s2.152.674 2.532 1.677a.5.5 0 0 0 .936-.354ZM21.5 17a.5.5 0 0 0-.5.5v1c0 1.379-1.122 2.5-2.5 2.5h-2a.5.5 0 0 0 0 1h2c1.93 0 3.5-1.57 3.5-3.5v-1a.5.5 0 0 0-.5-.5Zm-14 4h-2A2.503 2.503 0 0 1 3 18.5v-1a.5.5 0 0 0-1 0v1C2 20.43 3.57 22 5.5 22h2a.5.5 0 0 0 0-1Zm0-19h-2C3.57 2 2 3.57 2 5.5a.5.5 0 0 0 1 0C3 4.121 4.122 3 5.5 3h2a.5.5 0 0 0 0-1ZM12 21c-1.547 0-2.941.934-3.468 2.323a.5.5 0 1 0 .936.354C9.848 22.674 10.865 22 12 22s2.152.674 2.532 1.677a.5.5 0 0 0 .936-.354C14.941 21.933 13.548 21 12 21Z" />
</svg>